<svg xmlns="http://www.w3.org/2000/svg" xmlns:xlink="http://www.w3.org/1999/xlink" width="1920" zoomAndPan="magnify" viewBox="0 0 1440 809.999993" height="1080" preserveAspectRatio="xMidYMid meet" version="1.0"><defs><clipPath id="024a090685"><path d="M 341.769531 68 L 1098.519531 68 L 1098.519531 742 L 341.769531 742 Z M 341.769531 68 " clip-rule="nonzero"/></clipPath></defs><g clip-path="url(#024a090685)"><path fill="#e4cab8" d="M 1080.089844 631.585938 C 1078.351562 630.542969 1076.550781 629.632812 1074.71875 628.863281 C 1091.496094 623.21875 1098.046875 612.8125 1098.074219 603.132812 C 1098.121094 591.5 1089.164062 579.171875 1073.191406 572.09375 C 1074.175781 571.761719 1075.144531 571.382812 1076.113281 570.972656 C 1087.246094 566.226562 1094.914062 556.605469 1095.683594 546.441406 C 1096.488281 535.777344 1089.847656 524.871094 1078.773438 518.683594 C 1070.515625 514.070312 1061.167969 512.4375 1052.589844 511.257812 C 1054.632812 465.816406 1056.476562 412.40625 1057.144531 357.757812 C 1057.203125 357.484375 1057.234375 357.195312 1057.234375 356.894531 C 1058.398438 258.226562 1055.417969 179.34375 1048.355469 122.03125 C 1048.265625 121.304688 1048.175781 120.578125 1048.082031 119.867188 C 1047.976562 119.082031 1047.886719 118.308594 1047.78125 117.539062 C 1047.644531 116.496094 1047.507812 115.453125 1047.371094 114.421875 C 1047.296875 113.816406 1047.207031 113.226562 1047.128906 112.621094 C 1046.902344 110.972656 1046.675781 109.339844 1046.449219 107.722656 C 1045.222656 99.191406 1043.53125 87.5 1034.484375 79.390625 C 1029.417969 74.835938 1022.140625 73.054688 1015.457031 74.71875 C 1005.820312 77.121094 1000.164062 83.566406 996.050781 92.21875 C 996.003906 92.050781 995.957031 91.886719 995.898438 91.71875 C 992.875 81.355469 985.492188 73.613281 976.65625 71.480469 C 964.117188 68.441406 952.53125 76.910156 947.039062 86.03125 C 945.996094 87.769531 945.105469 89.570312 944.316406 91.402344 C 938.691406 74.65625 928.285156 68.105469 918.605469 68.0625 C 918.574219 68.0625 918.542969 68.0625 918.511719 68.0625 C 908.316406 68.0625 897.59375 74.988281 890.347656 87.484375 C 888.652344 87.378906 886.898438 87.257812 885.054688 87.136719 C 879.972656 77.589844 871.167969 71.148438 861.925781 70.453125 C 852.351562 69.710938 842.519531 75.066406 836.136719 84.261719 C 720.585938 77.984375 505.402344 69.921875 381.476562 87.847656 C 372.929688 89.085938 361.238281 90.78125 353.128906 99.828125 C 348.589844 104.894531 346.792969 112.183594 348.457031 118.855469 C 350.859375 128.492188 357.304688 134.148438 365.957031 138.261719 C 365.789062 138.308594 365.625 138.351562 365.441406 138.414062 C 355.082031 141.4375 347.320312 148.820312 345.203125 157.652344 C 342.179688 170.179688 350.617188 181.78125 359.753906 187.269531 C 361.492188 188.3125 363.292969 189.222656 365.125 189.992188 C 348.347656 195.605469 341.816406 206.011719 341.769531 215.691406 C 341.722656 226.492188 349.453125 237.882812 363.355469 245.128906 C 363.308594 246.109375 363.25 247.109375 363.203125 248.109375 C 352.371094 252.933594 344.929688 262.386719 344.175781 272.386719 C 343.371094 282.929688 349.863281 293.699219 360.722656 299.929688 C 355.535156 419.742188 352.175781 589.09375 367.289062 693.570312 C 368.511719 702.101562 370.207031 713.796875 379.25 721.902344 C 384.320312 726.441406 391.609375 728.226562 398.28125 726.578125 C 407.914062 724.171875 413.574219 717.726562 417.6875 709.074219 C 417.734375 709.242188 417.777344 709.410156 417.839844 709.574219 C 420.863281 719.9375 428.230469 727.695312 437.078125 729.8125 C 449.589844 732.839844 461.21875 724.398438 466.695312 715.261719 C 467.738281 713.523438 468.632812 711.722656 469.417969 709.894531 C 475.0625 726.667969 485.46875 733.21875 495.148438 733.246094 C 495.179688 733.246094 495.207031 733.246094 495.238281 733.246094 C 504.179688 733.246094 513.527344 727.90625 520.558594 718.167969 C 520.605469 722.386719 520.636719 724.808594 520.636719 724.988281 C 520.664062 727.453125 522.570312 729.480469 525.039062 729.679688 C 527.457031 729.859375 690.667969 741.929688 850.082031 741.929688 C 926.410156 741.929688 1001.902344 739.160156 1058.398438 730.980469 C 1066.929688 729.753906 1078.621094 728.058594 1086.730469 719 C 1091.285156 713.929688 1093.070312 706.65625 1091.40625 699.96875 C 1089 690.335938 1082.554688 684.675781 1073.902344 680.5625 C 1074.070312 680.519531 1074.238281 680.472656 1074.417969 680.410156 C 1084.78125 677.386719 1092.539062 670.019531 1094.65625 661.171875 C 1097.667969 648.675781 1089.226562 637.058594 1080.089844 631.585938 Z M 1085.382812 658.976562 C 1084.070312 664.421875 1078.714844 669.265625 1071.726562 671.304688 C 1066.308594 672.894531 1060.457031 672.953125 1054.601562 672.683594 C 1054.574219 672.683594 1054.558594 672.667969 1054.527344 672.667969 L 987.320312 667.496094 C 984.613281 667.3125 982.40625 669.25 982.210938 671.878906 C 982.011719 674.496094 983.964844 676.796875 986.597656 676.992188 L 1047.628906 681.699219 L 1049.429688 682.210938 C 1068.519531 687.777344 1079.453125 691.453125 1082.164062 702.316406 C 1083.054688 705.898438 1082.070312 709.96875 1079.636719 712.675781 C 1074.265625 718.664062 1066.21875 720.253906 1057.023438 721.585938 C 921.25 741.21875 674.574219 729.421875 572.199219 723.25 C 575.042969 720.675781 577.554688 717.5625 579.566406 713.960938 C 584.785156 704.613281 586.191406 693.90625 587.433594 684.449219 L 588.292969 677.945312 C 594.101562 633.671875 598.703125 598.699219 605.824219 594.058594 C 616.914062 596.613281 628.105469 603.980469 639.949219 611.785156 C 656.589844 622.75 673.742188 634.035156 692.242188 632.21875 C 699.621094 631.464844 705.371094 629.375 709.773438 625.835938 C 716.925781 620.105469 720.648438 609.96875 719.5 599.394531 C 718.46875 590.019531 714.144531 581.652344 710.042969 574.710938 C 703.539062 563.714844 681.714844 526.050781 662.09375 484.164062 C 706.082031 483.226562 747.179688 480.988281 762.894531 477.765625 C 826.820312 464.636719 925.273438 407.734375 944.363281 396.449219 C 950.429688 392.863281 957.660156 389.082031 965.238281 388.265625 C 972.632812 387.511719 979.5 389.839844 983.222656 394.46875 C 985.582031 397.417969 987.003906 401.515625 987.546875 407.007812 C 989.078125 422.089844 979.152344 437.152344 968.640625 453.097656 C 960.714844 465.121094 952.515625 477.570312 949.582031 490.320312 C 948.917969 493.226562 949.460938 496.054688 951.171875 498.503906 C 957.824219 508.09375 982.179688 511.632812 1041.519531 519.425781 L 1048.023438 520.273438 C 1057.054688 521.453125 1066.386719 522.675781 1074.128906 527.019531 C 1080.558594 530.617188 1086.789062 537.804688 1086.199219 545.742188 C 1085.597656 553.820312 1078.382812 559.675781 1072.390625 562.230469 C 1064.570312 565.574219 1055.523438 565.921875 1046.78125 566.269531 C 1046.269531 566.285156 1045.785156 566.40625 1045.316406 566.585938 L 989.289062 562.851562 C 986.640625 562.730469 984.402344 564.667969 984.222656 567.285156 C 984.054688 569.902344 986.035156 572.167969 988.652344 572.351562 L 1055.902344 576.828125 C 1075.824219 580.503906 1088.605469 592.4375 1088.5625 603.101562 C 1088.515625 614.671875 1073.601562 622.449219 1049.640625 623.460938 L 987.183594 620.46875 C 984.644531 620.40625 982.328125 622.371094 982.195312 624.988281 C 982.058594 627.605469 984.101562 629.84375 986.714844 629.980469 L 1049.019531 632.960938 C 1057.71875 633.988281 1067.550781 635.167969 1075.1875 639.738281 C 1081.632812 643.625 1087.199219 651.460938 1085.382812 658.976562 Z M 495.207031 723.71875 C 495.195312 723.71875 495.179688 723.71875 495.148438 723.71875 C 483.59375 723.671875 475.800781 708.789062 474.789062 684.84375 L 477.785156 622.34375 C 477.90625 619.710938 475.878906 617.488281 473.261719 617.351562 C 470.75 617.183594 468.40625 619.257812 468.269531 621.875 L 465.289062 684.117188 C 464.261719 692.816406 463.097656 702.675781 458.496094 710.332031 C 454.640625 716.761719 446.867188 722.328125 439.289062 720.527344 C 433.84375 719.210938 429 713.855469 426.960938 706.867188 C 425.371094 701.453125 425.3125 695.554688 425.597656 689.667969 L 430.773438 622.464844 C 430.96875 619.847656 429.015625 617.546875 426.386719 617.351562 C 423.691406 617.15625 421.46875 619.121094 421.273438 621.738281 L 416.566406 682.800781 L 416.054688 684.570312 C 410.488281 703.660156 406.8125 714.597656 395.949219 717.304688 C 392.367188 718.195312 388.296875 717.214844 385.589844 714.777344 C 379.601562 709.410156 378.011719 701.363281 376.679688 692.164062 C 361.8125 589.398438 364.957031 423.132812 370.039062 303.96875 C 376.90625 306.175781 384.03125 307.128906 390.566406 307.992188 L 397.132812 308.855469 C 441.375 314.664062 476.316406 319.246094 480.960938 326.371094 C 478.402344 337.457031 471.039062 348.652344 463.230469 360.496094 C 452.265625 377.132812 440.9375 394.332031 442.796875 412.785156 C 443.539062 420.167969 445.640625 425.898438 449.179688 430.332031 C 454.21875 436.625 462.671875 440.253906 471.839844 440.253906 C 473.09375 440.253906 474.363281 440.195312 475.636719 440.042969 C 485.027344 439.015625 493.378906 434.6875 500.320312 430.589844 C 513.601562 422.738281 565.800781 392.515625 617.320312 370.855469 C 618.230469 382.683594 619.304688 392.152344 620.511719 398.039062 C 633.644531 461.960938 690.546875 560.429688 701.832031 579.519531 C 705.417969 585.585938 709.199219 592.816406 710.015625 600.394531 C 710.636719 606.171875 709.347656 613.933594 703.796875 618.378906 C 700.863281 620.738281 696.765625 622.160156 691.257812 622.707031 C 676.164062 624.265625 661.113281 614.3125 645.167969 603.796875 C 633.144531 595.871094 620.695312 587.671875 607.945312 584.738281 C 605.039062 584.058594 602.210938 584.617188 599.761719 586.328125 C 590.171875 592.984375 586.632812 617.335938 578.839844 676.675781 L 577.992188 683.179688 C 576.8125 692.210938 575.589844 701.542969 571.246094 709.289062 C 567.648438 715.714844 560.492188 721.933594 552.523438 721.359375 C 544.445312 720.753906 538.589844 713.539062 536.035156 707.546875 C 532.691406 699.742188 532.34375 690.699219 531.996094 681.941406 C 531.980469 681.425781 531.859375 680.925781 531.679688 680.472656 L 535.414062 624.445312 C 535.582031 621.828125 533.597656 619.558594 530.980469 619.378906 C 528.441406 619.289062 526.097656 621.191406 525.914062 623.808594 L 521.4375 691.089844 C 517.746094 710.964844 505.859375 723.71875 495.207031 723.71875 Z M 353.660156 273.097656 C 354.261719 265.019531 361.480469 259.164062 367.46875 256.625 C 375.289062 253.28125 384.335938 252.917969 393.078125 252.570312 C 393.589844 252.554688 394.074219 252.433594 394.542969 252.253906 L 450.570312 255.988281 C 450.675781 255.988281 450.785156 256.003906 450.890625 256.003906 C 453.371094 256.003906 455.472656 254.066406 455.640625 251.554688 C 455.804688 248.941406 453.824219 246.671875 451.207031 246.488281 L 383.957031 242.011719 C 364.035156 238.335938 351.253906 226.402344 351.300781 215.738281 C 351.34375 204.167969 366.257812 196.390625 390.21875 195.378906 L 452.675781 198.371094 C 452.75 198.371094 452.824219 198.371094 452.902344 198.371094 C 455.425781 198.371094 457.53125 196.390625 457.652344 193.835938 C 457.773438 191.203125 455.746094 188.980469 453.128906 188.84375 L 390.824219 185.863281 C 381.703125 184.789062 372.277344 183.65625 364.671875 179.085938 C 358.226562 175.230469 352.660156 167.378906 354.476562 159.875 C 355.792969 154.417969 361.144531 149.574219 368.132812 147.535156 C 372.050781 146.382812 376.226562 146.035156 380.445312 146.035156 C 382.066406 146.035156 383.683594 146.097656 385.300781 146.171875 C 385.316406 146.171875 385.332031 146.171875 385.332031 146.171875 L 452.539062 151.347656 C 452.660156 151.359375 452.796875 151.359375 452.917969 151.359375 C 455.382812 151.359375 457.46875 149.46875 457.664062 146.960938 C 457.863281 144.34375 455.910156 142.042969 453.277344 141.847656 L 392.246094 137.140625 L 390.445312 136.628906 C 371.355469 131.0625 360.421875 127.386719 357.710938 116.527344 C 356.820312 112.941406 357.804688 108.871094 360.222656 106.164062 C 365.59375 100.175781 373.640625 98.585938 382.835938 97.253906 C 504.480469 79.664062 715.15625 87.300781 831.3125 93.519531 C 828.363281 101.234375 827.273438 109.429688 826.304688 116.859375 L 825.441406 123.421875 C 819.632812 167.667969 815.050781 202.609375 807.925781 207.25 C 796.839844 204.695312 785.644531 197.328125 773.785156 189.507812 C 757.148438 178.542969 739.933594 167.257812 721.511719 169.089844 C 714.128906 169.84375 708.394531 171.933594 703.964844 175.472656 C 697.261719 180.839844 693.574219 190.082031 694.085938 199.929688 C 694.117188 200.582031 694.175781 201.246094 694.253906 201.914062 C 695.265625 211.277344 699.609375 219.640625 703.707031 226.597656 C 711.117188 239.152344 738.527344 286.484375 759.808594 335.128906 C 722.949219 336.230469 690.53125 338.273438 676.980469 341.058594 C 613.054688 354.1875 514.601562 411.089844 495.496094 422.375 C 489.429688 425.960938 482.199219 429.742188 474.621094 430.574219 C 467.226562 431.390625 460.359375 429 456.636719 424.371094 C 454.277344 421.421875 452.855469 417.324219 452.3125 411.832031 C 450.785156 396.75 460.707031 381.6875 471.21875 365.742188 C 479.144531 353.71875 487.34375 341.269531 490.277344 328.519531 C 490.941406 325.613281 490.398438 322.785156 488.6875 320.335938 C 482.035156 310.761719 457.710938 307.21875 398.402344 299.429688 L 391.835938 298.566406 C 382.804688 297.375 373.457031 296.148438 365.730469 291.820312 C 359.285156 288.222656 353.054688 281.039062 353.660156 273.097656 Z M 861.199219 79.949219 C 869.277344 80.554688 875.132812 87.769531 877.6875 93.761719 C 881.03125 101.597656 881.394531 110.625 881.726562 119.371094 C 881.742188 119.898438 881.863281 120.382812 882.042969 120.851562 L 878.308594 176.863281 C 878.140625 179.480469 880.121094 181.75 882.738281 181.929688 C 882.84375 181.929688 882.953125 181.945312 883.058594 181.945312 C 885.539062 181.945312 887.640625 180.011719 887.808594 177.5 L 892.285156 110.234375 C 895.960938 90.355469 907.847656 77.589844 918.496094 77.589844 C 918.511719 77.589844 918.527344 77.589844 918.558594 77.589844 C 930.113281 77.636719 937.90625 92.535156 938.917969 116.464844 L 935.921875 178.964844 C 935.800781 181.597656 937.828125 183.820312 940.445312 183.957031 C 940.523438 183.957031 940.597656 183.957031 940.671875 183.957031 C 943.199219 183.957031 945.300781 181.976562 945.421875 179.417969 L 948.402344 117.175781 C 949.429688 108.476562 950.59375 98.617188 955.195312 90.960938 C 959.066406 84.519531 966.933594 78.984375 974.402344 80.765625 C 979.847656 82.082031 984.691406 87.4375 986.746094 94.425781 C 988.335938 99.855469 988.394531 105.742188 988.109375 111.625 L 982.933594 178.828125 C 982.738281 181.445312 984.691406 183.746094 987.320312 183.941406 C 987.441406 183.957031 987.578125 183.957031 987.699219 183.957031 C 990.164062 183.957031 992.253906 182.066406 992.449219 179.554688 L 997.152344 118.507812 L 997.683594 116.691406 C 1003.25 97.617188 1006.925781 86.695312 1017.769531 83.988281 C 1021.386719 83.097656 1025.425781 84.078125 1028.132812 86.515625 C 1034.121094 91.886719 1035.710938 99.945312 1037.042969 109.128906 C 1045.390625 166.835938 1048.976562 250.179688 1047.71875 356.820312 C 1047.71875 357.121094 1047.75 357.425781 1047.796875 357.710938 L 1047.628906 357.742188 C 1046.964844 411.910156 1045.148438 464.863281 1043.105469 510.03125 L 1042.757812 509.984375 C 998.484375 504.175781 963.511719 499.578125 958.871094 492.453125 C 961.425781 481.367188 968.792969 470.175781 976.597656 458.332031 C 987.5625 441.691406 998.894531 424.492188 997.03125 406.039062 C 996.292969 398.65625 994.1875 392.925781 990.648438 388.492188 C 984.917969 381.339844 974.796875 377.617188 964.210938 378.78125 C 954.832031 379.8125 946.464844 384.136719 939.523438 388.234375 C 924.109375 397.34375 856.375 436.535156 798.0625 457.558594 C 796.898438 433.222656 795.265625 413.300781 793.238281 403.363281 L 793.222656 403.363281 C 793.222656 403.316406 793.222656 403.285156 793.207031 403.242188 C 780.078125 339.316406 723.175781 240.847656 711.890625 221.773438 C 708.304688 215.691406 704.523438 208.460938 703.707031 200.882812 C 703.085938 195.105469 704.371094 187.332031 709.925781 182.898438 C 712.859375 180.539062 716.957031 179.117188 722.464844 178.574219 C 737.515625 177.03125 752.609375 186.96875 768.550781 197.480469 C 780.578125 205.40625 793.027344 213.605469 805.792969 216.539062 C 808.699219 217.203125 811.527344 216.660156 813.976562 214.964844 C 823.550781 208.3125 827.105469 183.988281 834.878906 124.679688 L 835.742188 118.113281 C 836.921875 109.097656 838.164062 99.765625 842.488281 92.019531 C 846.074219 85.578125 853.257812 79.40625 861.199219 79.949219 Z M 533.128906 720.707031 C 531.996094 720.632812 530.980469 720.558594 530.089844 720.496094 C 530.074219 719.375 530.058594 718.046875 530.042969 716.53125 C 530.980469 718.015625 532.011719 719.421875 533.128906 720.707031 Z M 783.875 405.175781 C 785.933594 415.207031 787.582031 435.777344 788.746094 460.796875 C 779.019531 464.019531 769.65625 466.648438 760.972656 468.433594 C 745.03125 471.71875 702.558594 473.957031 657.785156 474.816406 C 645.488281 447.667969 634.640625 419.488281 629.847656 396.148438 C 628.574219 389.976562 627.472656 379.824219 626.535156 367.105469 C 644.988281 359.722656 663.046875 353.671875 678.886719 350.421875 C 692.636719 347.59375 726.125 345.550781 763.789062 344.476562 C 772.710938 365.789062 780.140625 386.964844 783.875 405.175781 Z M 783.875 405.175781 " fill-opacity="1" fill-rule="nonzero"/></g></svg>