<svg xmlns="http://www.w3.org/2000/svg" xmlns:xlink="http://www.w3.org/1999/xlink" width="1920" zoomAndPan="magnify" viewBox="0 0 1440 809.999993" height="1080" preserveAspectRatio="xMidYMid meet" version="1.0"><defs><clipPath id="a9ecb6e432"><path d="M 386 97 L 1054 97 L 1054 716.445312 L 386 716.445312 Z M 386 97 " clip-rule="nonzero"/></clipPath></defs><path fill="#3a6351" d="M 753.550781 117.019531 L 739.457031 119.15625 C 742.257812 118.585938 745.011719 118.0625 747.714844 117.683594 C 749.660156 117.398438 751.605469 117.210938 753.550781 117.019531 Z M 753.550781 117.019531 " fill-opacity="1" fill-rule="nonzero"/><path fill="#3a6351" d="M 753.550781 117.019531 L 739.457031 119.15625 C 741.496094 118.253906 743.539062 117.351562 745.578125 116.496094 C 748.238281 116.59375 750.894531 116.78125 753.550781 117.019531 Z M 753.550781 117.019531 " fill-opacity="1" fill-rule="nonzero"/><g clip-path="url(#a9ecb6e432)"><path fill="#3a6351" d="M 1052.917969 606.976562 C 1052.730469 559.1875 1027.625 520.792969 982.253906 498.820312 C 965.3125 490.65625 945.949219 487.382812 928.863281 484.535156 C 905.988281 480.691406 884.347656 477.039062 869.683594 463.84375 C 860.714844 455.777344 856.15625 446.140625 856.15625 435.179688 C 856.253906 421.179688 863.84375 406.230469 876.421875 395.078125 C 936.835938 341.875 932.992188 254.410156 932.945312 253.9375 C 933.988281 206.667969 914.4375 160.585938 880.644531 130.640625 C 851.269531 104.632812 813.730469 93.335938 774.910156 98.796875 C 760.433594 100.835938 747.289062 104.824219 735.375 110.328125 C 723.132812 113.03125 711.929688 117.113281 701.679688 122.335938 C 695.179688 124.28125 689.007812 126.605469 683.171875 129.3125 C 672.96875 131.542969 663.476562 134.769531 654.695312 138.800781 C 652.75 139.230469 650.804688 139.703125 648.859375 140.179688 C 643.449219 140.273438 638.039062 140.75 632.535156 141.507812 C 549.53125 153.324219 508.761719 227.503906 505.15625 295.746094 C 505.109375 296.648438 501.21875 384.304688 562.199219 437.601562 C 574.871094 448.753906 582.511719 463.703125 582.703125 477.605469 C 582.796875 488.570312 578.289062 498.25 569.367188 506.367188 C 554.75 519.464844 533.203125 523.308594 510.234375 527.34375 C 492.246094 530.429688 473.644531 533.609375 456.84375 541.816406 C 411.566406 563.933594 386.605469 602.421875 386.605469 650.164062 L 386.605469 711.765625 C 386.605469 714.375 388.742188 716.511719 391.351562 716.511719 L 637.847656 716.511719 C 638.511719 716.890625 639.273438 717.082031 640.078125 717.082031 L 906.226562 715.847656 C 907.507812 715.847656 908.695312 715.324219 909.59375 714.421875 C 910.449219 713.570312 910.925781 712.429688 910.972656 711.242188 L 939.398438 711.101562 C 940.679688 711.101562 941.867188 710.578125 942.769531 709.679688 C 943.671875 708.777344 944.144531 707.589844 944.144531 706.308594 L 944.097656 701.703125 L 967.875 701.609375 C 969.15625 701.609375 970.339844 701.089844 971.242188 700.1875 C 972.144531 699.285156 972.621094 698.097656 972.621094 696.816406 L 972.574219 692.214844 L 996.347656 692.117188 C 997.628906 692.117188 998.816406 691.597656 999.71875 690.695312 C 1000.621094 689.792969 1001.09375 688.605469 1001.09375 687.324219 L 1001.046875 682.722656 L 1020.078125 682.625 C 1021.359375 682.625 1022.546875 682.105469 1023.449219 681.203125 C 1024.347656 680.300781 1024.824219 679.113281 1024.824219 677.832031 L 1024.777344 673.230469 L 1048.554688 673.136719 C 1049.835938 673.136719 1051.019531 672.613281 1051.921875 671.710938 C 1052.824219 670.808594 1053.296875 669.625 1053.296875 668.339844 Z M 396.097656 707.019531 L 396.097656 650.210938 C 396.097656 606.265625 419.160156 570.816406 461.019531 550.359375 C 476.539062 542.765625 494.476562 539.683594 512.085938 536.644531 C 536.242188 532.375 559.117188 528.339844 575.726562 513.390625 C 586.738281 503.375 592.289062 491.324219 592.195312 477.511719 C 592.003906 460.949219 583.128906 443.390625 568.464844 430.480469 C 510.898438 380.128906 514.550781 297.027344 514.601562 296.222656 C 518.964844 213.5 566.378906 170.503906 612.695312 155.792969 C 613.597656 155.460938 614.453125 155.222656 615.304688 154.984375 C 616.398438 154.652344 617.488281 154.320312 618.582031 154.035156 C 621 153.417969 623.421875 152.800781 625.84375 152.328125 C 626.886719 152.089844 627.882812 151.902344 628.878906 151.710938 C 630.445312 151.425781 632.011719 151.1875 633.53125 150.953125 C 633.625 150.953125 633.71875 150.90625 633.816406 150.90625 C 638.039062 150.289062 642.167969 149.957031 646.296875 149.765625 C 647.671875 149.671875 649.050781 149.621094 650.425781 149.671875 C 651.46875 149.621094 652.464844 149.621094 653.464844 149.671875 L 654.554688 149.671875 C 654.980469 149.671875 655.410156 149.71875 655.835938 149.71875 C 656.976562 149.71875 658.066406 149.765625 659.207031 149.90625 L 659.726562 149.90625 C 661.816406 150.050781 663.855469 150.238281 665.898438 150.476562 C 667.558594 150.667969 669.171875 150.90625 670.785156 151.1875 C 670.878906 151.1875 671.023438 151.238281 671.117188 151.238281 C 672.730469 151.472656 674.34375 151.757812 675.910156 152.136719 C 678.046875 152.519531 680.183594 153.039062 682.316406 153.609375 C 700.398438 158.355469 717.292969 167.417969 731.957031 180.421875 C 763.660156 208.566406 782.027344 251.941406 781.078125 296.839844 C 781.171875 297.644531 784.828125 380.460938 727.78125 430.671875 C 713.210938 443.578125 704.433594 461.1875 704.339844 477.84375 C 704.339844 491.605469 709.9375 503.660156 720.996094 513.582031 C 737.703125 528.625 760.671875 532.515625 784.96875 536.597656 C 801.390625 539.351562 820.042969 542.484375 835.796875 550.074219 C 877.75 570.386719 900.910156 605.792969 901.101562 649.738281 L 901.195312 664.355469 L 901.242188 673.703125 L 901.242188 673.800781 L 901.289062 683.101562 L 901.289062 683.195312 L 901.335938 692.449219 L 901.335938 692.546875 L 901.386719 701.800781 L 901.386719 701.894531 L 901.433594 706.402344 L 642.308594 707.589844 C 641.644531 707.210938 640.886719 707.019531 640.078125 707.019531 Z M 910.6875 664.308594 L 910.59375 649.691406 C 910.402344 601.898438 885.296875 563.507812 839.925781 541.535156 C 822.984375 533.371094 803.621094 530.097656 786.535156 527.25 C 763.660156 523.402344 742.019531 519.75 727.355469 506.554688 C 718.386719 498.488281 713.828125 488.855469 713.828125 477.890625 C 713.925781 463.890625 721.519531 448.941406 734.09375 437.789062 C 794.507812 384.589844 790.664062 297.125 790.617188 296.648438 C 791.660156 249.378906 772.109375 203.296875 738.316406 173.351562 C 723.558594 160.300781 706.804688 150.953125 688.820312 145.589844 C 688.960938 145.398438 689.105469 145.210938 689.292969 145.019531 C 693.183594 145.160156 697.078125 145.445312 700.921875 145.96875 C 724.507812 149.101562 746.625 159.210938 765.179688 175.675781 C 796.882812 203.820312 815.25 247.195312 814.300781 292.09375 C 814.394531 292.898438 818.046875 375.714844 761.003906 425.925781 C 746.433594 438.832031 737.652344 456.441406 737.558594 473.097656 C 737.558594 486.863281 743.160156 498.914062 754.21875 508.835938 C 770.921875 523.878906 793.890625 527.769531 818.191406 531.851562 C 834.609375 534.605469 853.261719 537.738281 869.019531 545.328125 C 910.972656 565.640625 934.132812 601.046875 934.320312 644.992188 L 934.414062 664.214844 Z M 943.90625 664.164062 L 943.765625 644.945312 C 943.574219 597.15625 918.46875 558.761719 873.101562 536.789062 C 856.15625 528.625 836.792969 525.351562 819.710938 522.503906 C 796.835938 518.660156 775.195312 515.003906 760.527344 501.8125 C 751.558594 493.742188 747.003906 484.109375 747.003906 473.144531 C 747.097656 459.144531 754.691406 444.195312 767.269531 433.042969 C 827.683594 379.84375 823.839844 292.378906 823.789062 291.902344 C 824.835938 244.632812 805.28125 198.550781 771.492188 168.605469 C 753.503906 152.660156 732.386719 142.265625 709.84375 137.851562 C 706.332031 137.1875 702.773438 136.621094 699.164062 136.238281 C 698.546875 136.335938 697.980469 136.382812 697.410156 136.429688 C 697.503906 136.335938 697.648438 136.238281 697.742188 136.097656 C 698.214844 136.144531 698.691406 136.191406 699.164062 136.238281 C 703.722656 135.71875 708.277344 135.480469 712.832031 135.433594 C 742.589844 135.339844 770.78125 145.921875 793.65625 166.1875 C 825.355469 194.328125 843.722656 237.707031 842.773438 282.601562 C 842.867188 283.40625 846.523438 366.222656 789.476562 416.433594 C 774.910156 429.34375 766.128906 446.949219 766.035156 463.605469 C 766.035156 477.371094 771.632812 489.425781 782.691406 499.34375 C 799.398438 514.386719 822.367188 518.277344 846.664062 522.359375 C 863.085938 525.113281 881.738281 528.246094 897.492188 535.839844 C 939.445312 556.152344 962.605469 591.554688 962.796875 635.5 L 962.984375 664.070312 Z M 972.429688 664.023438 L 972.238281 635.453125 C 972.050781 587.664062 946.945312 549.269531 901.574219 527.296875 C 884.632812 519.132812 865.269531 515.859375 848.183594 513.011719 C 825.308594 509.167969 803.667969 505.511719 789.003906 492.320312 C 780.035156 484.25 775.476562 474.617188 775.476562 463.65625 C 775.574219 449.652344 783.167969 434.703125 795.742188 423.550781 C 856.15625 370.351562 852.3125 282.886719 852.265625 282.410156 C 853.308594 235.144531 833.757812 189.0625 799.964844 159.113281 C 779.132812 140.699219 754.21875 129.691406 727.640625 126.75 C 726.691406 126.84375 725.742188 126.9375 724.792969 127.082031 C 725.078125 126.890625 725.363281 126.75 725.648438 126.558594 C 726.3125 126.605469 726.976562 126.699219 727.640625 126.75 C 762.378906 122.808594 795.789062 133.34375 822.128906 156.695312 C 853.832031 184.835938 872.199219 228.214844 871.25 273.109375 C 871.34375 273.917969 875 356.730469 817.953125 406.941406 C 803.382812 419.851562 794.605469 437.457031 794.507812 454.117188 C 794.507812 467.878906 800.109375 479.933594 811.167969 489.851562 C 827.871094 504.894531 850.84375 508.789062 875.140625 512.867188 C 891.5625 515.621094 910.210938 518.753906 925.96875 526.347656 C 967.921875 546.660156 991.082031 582.0625 991.269531 626.007812 L 991.507812 663.929688 Z M 1000.953125 663.878906 L 1000.714844 625.960938 C 1000.523438 578.171875 975.417969 539.777344 930.050781 517.804688 C 913.105469 509.640625 893.742188 506.367188 876.660156 503.519531 C 853.785156 499.675781 832.144531 496.019531 817.480469 482.828125 C 808.507812 474.757812 803.953125 465.125 803.953125 454.164062 C 804.046875 440.164062 811.640625 425.214844 824.21875 414.058594 C 884.632812 360.859375 880.789062 273.394531 880.742188 272.917969 C 881.785156 225.652344 862.230469 179.570312 828.441406 149.621094 C 806.941406 130.59375 781.078125 119.488281 753.550781 117.019531 L 739.457031 119.15625 C 741.496094 118.253906 743.539062 117.351562 745.578125 116.496094 C 748.238281 116.59375 750.894531 116.78125 753.550781 117.019531 C 787.53125 113.746094 820.089844 124.375 845.859375 147.203125 C 877.5625 175.34375 895.925781 218.722656 894.976562 263.617188 C 895.074219 264.425781 898.726562 347.238281 841.683594 397.449219 C 827.113281 410.359375 818.332031 427.964844 818.238281 444.625 C 818.238281 458.386719 823.839844 470.441406 834.894531 480.359375 C 851.601562 495.402344 874.570312 499.296875 898.871094 503.375 C 915.289062 506.128906 933.941406 509.261719 949.699219 516.855469 C 991.652344 537.167969 1014.808594 572.570312 1015 616.515625 L 1015.285156 663.832031 Z M 1024.730469 663.785156 L 1024.445312 616.46875 C 1024.253906 568.679688 999.148438 530.285156 953.777344 508.3125 C 936.835938 500.148438 917.472656 496.875 900.386719 494.027344 C 877.511719 490.183594 855.871094 486.527344 841.207031 473.335938 C 832.238281 465.269531 827.683594 455.632812 827.683594 444.671875 C 827.777344 430.671875 835.371094 415.722656 847.945312 404.570312 C 908.359375 351.367188 904.515625 263.902344 904.46875 263.429688 C 905.515625 216.160156 885.960938 170.078125 852.171875 140.132812 C 831.382812 121.71875 806.46875 110.707031 779.9375 107.765625 C 814.679688 103.875 848.042969 114.410156 874.332031 137.710938 C 906.035156 165.855469 924.402344 209.230469 923.453125 254.125 C 923.546875 254.933594 927.203125 337.746094 870.15625 387.957031 C 855.585938 400.867188 846.808594 418.472656 846.714844 435.132812 C 846.714844 448.894531 852.3125 460.949219 863.371094 470.867188 C 880.074219 485.914062 903.046875 489.804688 927.34375 493.886719 C 943.765625 496.636719 962.417969 499.769531 978.171875 507.363281 C 1020.125 527.675781 1043.285156 563.078125 1043.476562 607.027344 L 1043.808594 663.691406 Z M 1024.730469 663.785156 " fill-opacity="1" fill-rule="nonzero"/></g><path fill="#3a6351" d="M 727.640625 126.75 C 726.691406 126.84375 725.742188 126.9375 724.792969 127.082031 C 725.078125 126.890625 725.363281 126.75 725.648438 126.558594 C 726.3125 126.605469 726.976562 126.699219 727.640625 126.75 Z M 727.640625 126.75 " fill-opacity="1" fill-rule="nonzero"/><path fill="#3a6351" d="M 699.164062 136.238281 C 698.546875 136.335938 697.980469 136.382812 697.410156 136.429688 C 697.503906 136.335938 697.648438 136.238281 697.742188 136.097656 C 698.214844 136.144531 698.691406 136.191406 699.164062 136.238281 Z M 699.164062 136.238281 " fill-opacity="1" fill-rule="nonzero"/><path fill="#3a6351" d="M 659.726562 149.90625 C 661.339844 150.050781 662.953125 150.191406 664.566406 150.382812 C 664.996094 150.429688 665.46875 150.429688 665.898438 150.476562 C 663.855469 150.238281 661.816406 150.050781 659.726562 149.90625 Z M 659.726562 149.90625 " fill-opacity="1" fill-rule="nonzero"/></svg>