<svg xmlns="http://www.w3.org/2000/svg" xmlns:xlink="http://www.w3.org/1999/xlink" width="1920" zoomAndPan="magnify" viewBox="0 0 1440 809.999993" height="1080" preserveAspectRatio="xMidYMid meet" version="1.0"><defs><clipPath id="e7f617e922"><path d="M 357.761719 55 L 870 55 L 870 567 L 357.761719 567 Z M 357.761719 55 " clip-rule="nonzero"/></clipPath></defs><path fill="#e4cab8" d="M 703.480469 765.734375 C 666.050781 765.734375 628.621094 751.472656 600.09375 722.996094 C 572.476562 695.378906 557.246094 658.644531 557.246094 619.605469 C 557.246094 580.566406 572.476562 543.835938 600.09375 516.21875 L 818.453125 297.855469 C 875.457031 240.851562 968.230469 240.851562 1025.179688 297.855469 C 1082.183594 354.859375 1082.183594 447.628906 1025.179688 504.582031 L 806.816406 722.941406 C 778.34375 751.523438 740.910156 765.734375 703.480469 765.734375 Z M 921.84375 265.894531 C 887.148438 265.894531 852.453125 279.085938 826.070312 305.523438 L 607.707031 523.832031 C 582.128906 549.410156 568.023438 583.464844 568.023438 619.605469 C 568.023438 655.804688 582.128906 689.800781 607.707031 715.382812 C 660.527344 768.203125 746.488281 768.203125 799.308594 715.382812 L 1017.671875 497.019531 C 1070.492188 444.199219 1070.492188 358.238281 1017.671875 305.417969 C 991.234375 279.085938 956.539062 265.894531 921.84375 265.894531 Z M 921.84375 265.894531 " fill-opacity="1" fill-rule="nonzero"/><g clip-path="url(#e7f617e922)"><path fill="#e4cab8" d="M 504.316406 566.945312 C 467.101562 566.945312 429.886719 552.789062 401.570312 524.476562 L 400.339844 523.242188 C 372.882812 495.785156 357.761719 459.265625 357.761719 420.441406 C 357.761719 381.617188 372.882812 345.152344 400.339844 317.695312 L 619.878906 98.101562 C 676.5625 41.417969 768.742188 41.417969 825.425781 98.101562 L 826.660156 99.335938 C 854.113281 126.792969 869.238281 163.257812 869.238281 202.082031 C 869.238281 240.90625 854.113281 277.371094 826.660156 304.828125 L 607.0625 524.476562 C 578.75 552.789062 541.535156 566.945312 504.316406 566.945312 Z M 722.679688 66.355469 C 688.199219 66.355469 653.71875 79.441406 627.496094 105.714844 L 407.898438 325.257812 C 382.480469 350.730469 368.484375 384.515625 368.484375 420.441406 C 368.484375 456.371094 382.480469 490.210938 407.898438 515.628906 L 409.132812 516.859375 C 461.632812 569.304688 547.003906 569.359375 599.503906 516.859375 L 819.097656 297.265625 C 844.515625 271.847656 858.511719 238.0625 858.511719 202.082031 C 858.511719 166.097656 844.515625 132.316406 819.097656 106.894531 L 817.863281 105.664062 C 791.585938 79.492188 757.105469 66.355469 722.679688 66.355469 Z M 722.679688 66.355469 " fill-opacity="1" fill-rule="nonzero"/></g><path fill="#e4cab8" d="M 710.453125 713.878906 C 684.5 713.878906 658.597656 704.011719 638.863281 684.277344 C 619.71875 665.132812 609.207031 639.714844 609.207031 612.6875 C 609.207031 585.660156 619.71875 560.191406 638.863281 541.097656 C 678.332031 501.632812 742.574219 501.632812 782.042969 541.097656 C 821.511719 580.566406 821.511719 644.8125 782.042969 684.277344 C 762.308594 704.011719 736.355469 713.878906 710.453125 713.878906 Z M 710.453125 522.167969 C 687.285156 522.167969 664.066406 531.019531 646.425781 548.660156 C 629.316406 565.765625 619.933594 588.503906 619.933594 612.6875 C 619.933594 636.875 629.371094 659.609375 646.425781 676.71875 C 681.710938 712.003906 739.140625 712.003906 774.480469 676.71875 C 809.765625 641.433594 809.765625 584 774.480469 548.660156 C 756.839844 531.019531 733.617188 522.167969 710.453125 522.167969 Z M 710.453125 522.167969 " fill-opacity="1" fill-rule="nonzero"/><path fill="#e4cab8" d="M 744.128906 646.367188 C 725.574219 664.921875 695.332031 664.921875 676.777344 646.367188 C 658.222656 627.8125 658.222656 597.566406 676.777344 579.011719 C 695.332031 560.457031 725.574219 560.457031 744.128906 579.011719 C 762.683594 597.566406 762.683594 627.757812 744.128906 646.367188 Z M 744.128906 646.367188 " fill-opacity="1" fill-rule="nonzero"/><path fill="#e4cab8" d="M 712.328125 313.675781 C 685.300781 313.675781 659.832031 303.164062 640.738281 284.019531 C 601.273438 244.550781 601.273438 180.308594 640.738281 140.839844 C 659.882812 121.695312 685.300781 111.1875 712.328125 111.1875 C 739.355469 111.1875 764.828125 121.695312 783.917969 140.839844 C 803.0625 159.984375 813.574219 185.402344 813.574219 212.429688 C 813.574219 239.457031 803.0625 264.929688 783.917969 284.019531 C 764.773438 303.109375 739.410156 313.675781 712.328125 313.675781 Z M 712.328125 121.910156 C 688.144531 121.910156 665.40625 131.347656 648.300781 148.402344 C 613.015625 183.6875 613.015625 241.121094 648.300781 276.460938 C 665.40625 293.566406 688.144531 303.003906 712.328125 303.003906 C 736.515625 303.003906 759.25 293.566406 776.359375 276.460938 C 793.464844 259.351562 802.847656 236.617188 802.847656 212.429688 C 802.847656 188.246094 793.410156 165.507812 776.304688 148.402344 C 759.25 131.296875 736.515625 121.910156 712.328125 121.910156 Z M 712.328125 121.910156 " fill-opacity="1" fill-rule="nonzero"/><path fill="#e4cab8" d="M 746.007812 246.105469 C 727.453125 264.660156 697.207031 264.660156 678.652344 246.105469 C 660.097656 227.554688 660.097656 197.308594 678.652344 178.753906 C 697.207031 160.199219 727.453125 160.199219 746.007812 178.753906 C 764.613281 197.308594 764.613281 227.554688 746.007812 246.105469 Z M 746.007812 246.105469 " fill-opacity="1" fill-rule="nonzero"/></svg>