<svg xmlns="http://www.w3.org/2000/svg" xmlns:xlink="http://www.w3.org/1999/xlink" width="1920" zoomAndPan="magnify" viewBox="0 0 1440 809.999993" height="1080" preserveAspectRatio="xMidYMid meet" version="1.0"><defs><clipPath id="b28ae13387"><path d="M 336.386719 38.128906 L 1103.636719 38.128906 L 1103.636719 771 L 336.386719 771 Z M 336.386719 38.128906 " clip-rule="nonzero"/></clipPath></defs><g clip-path="url(#b28ae13387)"><path fill="#3a6351" d="M 1059.863281 770.992188 L 380.195312 770.992188 C 356.035156 770.992188 336.386719 751.34375 336.386719 727.183594 L 336.386719 82.671875 C 336.386719 58.511719 356.035156 38.863281 380.195312 38.863281 L 1059.832031 38.863281 C 1083.992188 38.863281 1103.636719 58.511719 1103.636719 82.671875 L 1103.636719 727.183594 C 1103.636719 738.859375 1099.125 749.886719 1090.84375 758.132812 C 1082.597656 766.445312 1071.570312 770.992188 1059.863281 770.992188 Z M 380.195312 47.347656 C 360.71875 47.347656 344.871094 63.191406 344.871094 82.671875 L 344.871094 727.183594 C 344.871094 746.664062 360.71875 762.507812 380.195312 762.507812 L 1059.863281 762.507812 C 1069.296875 762.507812 1078.1875 758.84375 1084.839844 752.160156 C 1091.488281 745.472656 1095.152344 736.617188 1095.152344 727.183594 L 1095.152344 82.671875 C 1095.152344 63.191406 1079.308594 47.347656 1059.832031 47.347656 Z M 380.195312 47.347656 " fill-opacity="1" fill-rule="nonzero"/></g><path fill="#3a6351" d="M 711.511719 453.585938 C 612.226562 453.585938 531.433594 372.792969 531.433594 273.507812 C 531.433594 174.21875 612.226562 93.425781 711.511719 93.425781 C 810.800781 93.425781 891.59375 174.21875 891.59375 273.507812 C 891.59375 372.792969 810.832031 453.585938 711.511719 453.585938 Z M 711.511719 101.875 C 616.875 101.875 539.914062 178.867188 539.914062 273.472656 C 539.914062 368.078125 616.910156 445.070312 711.511719 445.070312 C 806.117188 445.070312 883.109375 368.078125 883.109375 273.472656 C 883.109375 178.867188 806.152344 101.875 711.511719 101.875 Z M 711.511719 101.875 " fill-opacity="1" fill-rule="nonzero"/><path fill="#3a6351" d="M 711.511719 453.585938 C 710.425781 453.585938 709.375 453.179688 708.5625 452.398438 C 645.582031 391.183594 615.382812 327.1875 618.742188 262.171875 C 623.898438 162.480469 708.050781 95.023438 708.898438 94.34375 C 710.191406 93.324219 711.921875 93.15625 713.378906 93.867188 C 714.839844 94.582031 715.753906 96.074219 715.753906 97.667969 L 715.753906 449.34375 C 715.753906 451.042969 714.738281 452.601562 713.175781 453.246094 C 712.632812 453.449219 712.089844 453.585938 711.511719 453.585938 Z M 707.269531 106.964844 C 687.421875 125.1875 631.261719 183.449219 627.191406 262.648438 C 624.101562 322.605469 651.046875 381.921875 707.269531 439.132812 Z M 707.269531 106.964844 " fill-opacity="1" fill-rule="nonzero"/><path fill="#3a6351" d="M 711.511719 453.585938 C 710.394531 453.585938 709.273438 453.144531 708.425781 452.261719 C 706.832031 450.566406 706.898438 447.886719 708.59375 446.257812 C 769.773438 388.367188 799.433594 327.59375 796.820312 265.703125 C 792.714844 168.894531 709.714844 101.636719 708.867188 100.960938 C 707.035156 99.5 706.726562 96.820312 708.1875 94.988281 C 709.648438 93.15625 712.328125 92.851562 714.160156 94.308594 C 715.042969 94.988281 800.960938 164.515625 805.300781 265.226562 C 808.085938 329.734375 777.511719 392.679688 714.429688 452.398438 C 713.617188 453.179688 712.566406 453.585938 711.511719 453.585938 Z M 711.511719 453.585938 " fill-opacity="1" fill-rule="nonzero"/><path fill="#3a6351" d="M 887.386719 277.714844 L 535.675781 277.714844 C 533.332031 277.714844 531.433594 275.8125 531.433594 273.472656 C 531.433594 271.132812 533.332031 269.230469 535.675781 269.230469 L 887.351562 269.230469 C 889.691406 269.230469 891.59375 271.132812 891.59375 273.472656 C 891.59375 275.8125 889.726562 277.714844 887.386719 277.714844 Z M 887.386719 277.714844 " fill-opacity="1" fill-rule="nonzero"/><path fill="#3a6351" d="M 710.527344 202.179688 C 690.203125 202.179688 672.050781 199.398438 656.78125 195.597656 C 608.867188 183.753906 579.175781 160.476562 577.921875 159.492188 C 576.089844 158.035156 575.78125 155.386719 577.242188 153.519531 C 578.699219 151.6875 581.347656 151.382812 583.214844 152.84375 C 584.367188 153.757812 701.265625 243.953125 840.183594 152.640625 C 842.121094 151.347656 844.765625 151.890625 846.054688 153.859375 C 847.34375 155.828125 846.800781 158.441406 844.832031 159.730469 C 795.53125 192.136719 749.109375 202.179688 710.527344 202.179688 Z M 710.527344 202.179688 " fill-opacity="1" fill-rule="nonzero"/><path fill="#3a6351" d="M 848.023438 388.570312 C 847.3125 388.570312 846.597656 388.402344 845.953125 388.027344 C 702.996094 307.949219 578.632812 387.078125 577.378906 387.894531 C 575.410156 389.148438 572.796875 388.605469 571.507812 386.671875 C 570.21875 384.703125 570.761719 382.089844 572.730469 380.800781 C 574.019531 379.953125 702.519531 297.972656 850.09375 380.664062 C 852.128906 381.820312 852.875 384.398438 851.722656 386.433594 C 850.941406 387.792969 849.484375 388.570312 848.023438 388.570312 Z M 848.023438 388.570312 " fill-opacity="1" fill-rule="nonzero"/><path fill="#3a6351" d="M 720.03125 716.460938 C 643.511719 716.460938 571.507812 704.652344 517.25 683.242188 C 461.769531 661.320312 431.230469 631.699219 431.230469 599.800781 C 431.230469 567.90625 461.769531 538.28125 517.25 516.363281 C 571.472656 494.949219 643.476562 483.140625 720.03125 483.140625 C 796.582031 483.140625 868.550781 494.949219 922.8125 516.363281 C 978.289062 538.28125 1008.828125 567.90625 1008.828125 599.800781 C 1008.828125 602.144531 1006.929688 604.042969 1004.589844 604.042969 C 1002.246094 604.042969 1000.347656 602.144531 1000.347656 599.800781 C 1000.347656 571.636719 971.707031 544.796875 919.6875 524.269531 C 866.414062 503.230469 795.53125 491.625 720.03125 491.625 C 644.53125 491.625 573.644531 503.230469 520.371094 524.269531 C 468.351562 544.832031 439.714844 571.636719 439.714844 599.800781 C 439.714844 627.964844 468.351562 654.808594 520.371094 675.371094 C 573.644531 696.40625 644.53125 708.011719 720.03125 708.011719 C 724.40625 708.011719 728.785156 707.980469 733.128906 707.878906 C 733.160156 707.878906 733.195312 707.878906 733.195312 707.878906 C 735.503906 707.878906 737.402344 709.710938 737.4375 712.050781 C 737.472656 714.390625 735.605469 716.328125 733.261719 716.359375 C 728.886719 716.429688 724.476562 716.460938 720.03125 716.460938 Z M 720.03125 716.460938 " fill-opacity="1" fill-rule="nonzero"/><path fill="#3a6351" d="M 722.878906 677.746094 C 601.640625 677.746094 506.695312 639.128906 506.695312 589.824219 C 506.695312 584.769531 507.714844 579.714844 509.714844 574.792969 C 510.597656 572.621094 513.074219 571.570312 515.246094 572.488281 C 517.417969 573.367188 518.46875 575.847656 517.554688 578.015625 C 515.960938 581.917969 515.144531 585.890625 515.144531 589.859375 C 515.144531 632.921875 610.257812 669.296875 722.847656 669.296875 C 835.433594 669.296875 930.546875 632.921875 930.546875 589.859375 C 930.546875 546.800781 835.433594 510.421875 722.847656 510.421875 C 709.953125 510.421875 697.089844 510.898438 684.535156 511.816406 C 682.128906 511.984375 680.160156 510.21875 679.988281 507.878906 C 679.820312 505.539062 681.585938 503.5 683.925781 503.332031 C 696.652344 502.414062 709.75 501.941406 722.847656 501.941406 C 844.085938 501.941406 939.03125 540.554688 939.03125 589.859375 C 939.03125 639.164062 844.121094 677.746094 722.878906 677.746094 Z M 722.878906 677.746094 " fill-opacity="1" fill-rule="nonzero"/><path fill="#3a6351" d="M 715.144531 647.613281 C 712.800781 647.613281 710.902344 645.710938 710.902344 643.371094 C 710.902344 641.03125 712.800781 639.128906 715.144531 639.128906 C 788.199219 639.128906 849.921875 614.425781 849.921875 585.210938 C 849.921875 555.996094 788.199219 531.292969 715.144531 531.292969 C 642.085938 531.292969 580.363281 555.996094 580.363281 585.210938 C 580.363281 587.550781 578.464844 589.453125 576.121094 589.453125 C 573.78125 589.453125 571.878906 587.550781 571.878906 585.210938 C 571.878906 550.226562 634.792969 522.808594 715.144531 522.808594 C 795.460938 522.808594 858.40625 550.226562 858.40625 585.210938 C 858.40625 620.195312 795.496094 647.613281 715.144531 647.613281 Z M 715.144531 647.613281 " fill-opacity="1" fill-rule="nonzero"/><path fill="#3a6351" d="M 762.140625 571.945312 C 762.140625 572.527344 762.070312 573.113281 761.933594 573.695312 C 761.796875 574.277344 761.589844 574.859375 761.316406 575.433594 C 761.042969 576.007812 760.699219 576.574219 760.292969 577.132812 C 759.886719 577.695312 759.414062 578.246094 758.875 578.785156 C 758.335938 579.328125 757.738281 579.855469 757.074219 580.375 C 756.414062 580.890625 755.691406 581.390625 754.910156 581.878906 C 754.132812 582.367188 753.296875 582.835938 752.40625 583.289062 C 751.511719 583.742188 750.570312 584.175781 749.578125 584.589844 C 748.585938 585.003906 747.546875 585.394531 746.460938 585.765625 C 745.375 586.136719 744.246094 586.488281 743.078125 586.8125 C 741.910156 587.136719 740.707031 587.4375 739.46875 587.714844 C 738.230469 587.992188 736.960938 588.242188 735.664062 588.464844 C 734.363281 588.6875 733.042969 588.886719 731.699219 589.054688 C 730.355469 589.226562 728.996094 589.367188 727.617188 589.480469 C 726.238281 589.597656 724.851562 589.683594 723.453125 589.738281 C 722.054688 589.796875 720.652344 589.824219 719.25 589.824219 C 717.84375 589.824219 716.445312 589.796875 715.046875 589.738281 C 713.648438 589.683594 712.257812 589.597656 710.882812 589.480469 C 709.503906 589.367188 708.144531 589.226562 706.800781 589.054688 C 705.453125 588.886719 704.132812 588.6875 702.835938 588.464844 C 701.539062 588.242188 700.269531 587.992188 699.03125 587.714844 C 697.792969 587.4375 696.589844 587.136719 695.421875 586.8125 C 694.253906 586.488281 693.125 586.136719 692.039062 585.765625 C 690.953125 585.394531 689.914062 585.003906 688.921875 584.589844 C 687.929688 584.175781 686.984375 583.742188 686.09375 583.289062 C 685.203125 582.835938 684.367188 582.367188 683.585938 581.878906 C 682.808594 581.390625 682.085938 580.890625 681.421875 580.375 C 680.761719 579.855469 680.160156 579.328125 679.625 578.785156 C 679.085938 578.246094 678.613281 577.695312 678.207031 577.132812 C 677.796875 576.574219 677.457031 576.007812 677.183594 575.433594 C 676.910156 574.859375 676.703125 574.277344 676.566406 573.695312 C 676.425781 573.113281 676.359375 572.527344 676.359375 571.945312 C 676.359375 571.359375 676.425781 570.773438 676.566406 570.191406 C 676.703125 569.609375 676.910156 569.027344 677.183594 568.453125 C 677.457031 567.878906 677.796875 567.3125 678.207031 566.753906 C 678.613281 566.191406 679.085938 565.640625 679.625 565.101562 C 680.160156 564.558594 680.761719 564.03125 681.421875 563.515625 C 682.085938 562.996094 682.808594 562.496094 683.585938 562.007812 C 684.367188 561.519531 685.203125 561.050781 686.09375 560.597656 C 686.984375 560.144531 687.929688 559.710938 688.921875 559.296875 C 689.914062 558.882812 690.953125 558.492188 692.039062 558.121094 C 693.125 557.75 694.253906 557.398438 695.421875 557.074219 C 696.589844 556.75 697.792969 556.449219 699.03125 556.171875 C 700.269531 555.894531 701.539062 555.644531 702.835938 555.421875 C 704.132812 555.199219 705.453125 555 706.800781 554.832031 C 708.144531 554.660156 709.503906 554.519531 710.882812 554.40625 C 712.257812 554.289062 713.648438 554.203125 715.046875 554.148438 C 716.445312 554.089844 717.84375 554.0625 719.25 554.0625 C 720.652344 554.0625 722.054688 554.089844 723.453125 554.148438 C 724.851562 554.203125 726.238281 554.289062 727.617188 554.40625 C 728.996094 554.519531 730.355469 554.660156 731.699219 554.832031 C 733.042969 555 734.363281 555.199219 735.664062 555.421875 C 736.960938 555.644531 738.230469 555.894531 739.46875 556.171875 C 740.707031 556.449219 741.910156 556.75 743.078125 557.074219 C 744.246094 557.398438 745.375 557.75 746.460938 558.121094 C 747.542969 558.492188 748.585938 558.882812 749.578125 559.296875 C 750.570312 559.710938 751.511719 560.144531 752.40625 560.597656 C 753.296875 561.050781 754.132812 561.519531 754.910156 562.007812 C 755.691406 562.496094 756.414062 562.996094 757.074219 563.515625 C 757.738281 564.03125 758.335938 564.558594 758.875 565.101562 C 759.414062 565.640625 759.886719 566.191406 760.292969 566.753906 C 760.699219 567.3125 761.042969 567.878906 761.316406 568.453125 C 761.589844 569.027344 761.796875 569.609375 761.933594 570.191406 C 762.070312 570.773438 762.140625 571.359375 762.140625 571.945312 Z M 762.140625 571.945312 " fill-opacity="1" fill-rule="nonzero"/></svg>