<svg xmlns="http://www.w3.org/2000/svg" xmlns:xlink="http://www.w3.org/1999/xlink" width="1920" zoomAndPan="magnify" viewBox="0 0 1440 809.999993" height="1080" preserveAspectRatio="xMidYMid meet" version="1.0"><defs><clipPath id="fd0fe78f0b"><path d="M 354.046875 49.691406 L 1086 49.691406 L 1086 759.941406 L 354.046875 759.941406 Z M 354.046875 49.691406 " clip-rule="nonzero"/></clipPath></defs><g clip-path="url(#fd0fe78f0b)"><path fill="#e4cab8" d="M 1069.546875 657.734375 C 1069.53125 657.628906 1069.53125 657.527344 1069.5 657.425781 L 1047.988281 582.332031 L 1018.730469 480.019531 L 951.484375 243.660156 C 951.453125 243.558594 951.394531 243.453125 951.351562 243.351562 L 935.324219 187.007812 C 934.976562 185.777344 934.007812 184.8125 932.78125 184.460938 C 931.550781 184.125 902.292969 176.207031 873.40625 184.445312 C 844.46875 192.699219 824.097656 214.625 823.265625 215.558594 C 823.101562 215.734375 822.984375 215.925781 822.855469 216.128906 L 822.882812 192.640625 C 822.882812 191.164062 822.003906 189.832031 820.644531 189.246094 C 819.09375 188.585938 782.300781 173.191406 739.683594 173.191406 C 697.066406 173.191406 660.742188 188.457031 659.203125 189.097656 C 658.03125 189.597656 657.257812 190.664062 657.050781 191.894531 L 657.050781 123.988281 C 657.050781 122.699219 656.378906 121.515625 655.28125 120.839844 C 654.375 120.285156 632.613281 107.304688 597.558594 107.304688 C 562.507812 107.304688 540.746094 120.285156 539.839844 120.839844 C 539.339844 121.132812 538.960938 121.558594 538.667969 122.027344 L 538.667969 67.90625 C 538.667969 66.484375 537.847656 65.183594 536.5625 64.582031 C 535.273438 63.984375 505.007812 49.800781 479.160156 49.800781 C 453.316406 49.800781 423.050781 63.984375 421.777344 64.582031 C 420.488281 65.199219 419.667969 66.484375 419.667969 67.90625 L 419.667969 71.433594 C 419.289062 70.832031 418.734375 70.347656 418.058594 70.058594 C 417.371094 69.765625 401.113281 62.679688 387.148438 62.679688 C 373.1875 62.679688 356.929688 69.765625 356.242188 70.070312 C 354.910156 70.65625 354.046875 71.972656 354.046875 73.4375 L 354.046875 741.59375 C 354.046875 742.925781 354.777344 744.152344 355.949219 744.8125 C 356.636719 745.191406 373.011719 754.179688 387.148438 754.179688 C 401.289062 754.179688 417.664062 745.191406 418.351562 744.8125 C 419.523438 744.167969 420.253906 742.925781 420.253906 741.59375 L 420.253906 738.066406 C 420.621094 738.636719 421.132812 739.105469 421.777344 739.398438 C 423.050781 739.996094 453.316406 754.179688 479.160156 754.179688 C 505.007812 754.179688 535.273438 739.996094 536.546875 739.398438 C 537.21875 739.074219 537.761719 738.5625 538.125 737.949219 C 538.257812 739.046875 538.875 740.054688 539.839844 740.640625 C 540.746094 741.199219 562.523438 754.179688 597.558594 754.179688 C 632.613281 754.179688 654.375 741.199219 655.28125 740.640625 C 656.175781 740.101562 656.773438 739.191406 656.964844 738.183594 L 656.964844 740.890625 C 656.964844 742.367188 657.84375 743.6875 659.203125 744.269531 C 660.742188 744.914062 697.066406 760.179688 739.683594 760.179688 C 782.300781 760.179688 819.109375 744.785156 820.644531 744.140625 C 822.003906 743.554688 822.882812 742.222656 822.882812 740.742188 L 822.824219 682.234375 C 822.839844 682.101562 822.882812 681.96875 822.882812 681.835938 L 822.824219 648.484375 C 822.855469 648.277344 822.882812 648.058594 822.882812 647.839844 L 822.753906 603.816406 L 822.753906 603.699219 L 822.664062 513.179688 L 822.898438 285.632812 C 822.898438 285.558594 822.867188 285.488281 822.867188 285.414062 L 822.898438 251.5625 C 822.898438 251.429688 822.855469 251.300781 822.839844 251.167969 L 822.867188 220.550781 L 833.011719 256.214844 C 832.9375 256.730469 832.980469 257.242188 833.113281 257.738281 L 849.210938 314.011719 C 849.242188 314.128906 849.242188 314.257812 849.269531 314.375 L 906.464844 514.425781 L 926.765625 585.785156 L 945.351562 651.308594 C 945.378906 651.425781 945.453125 651.527344 945.496094 651.644531 L 961.523438 707.945312 C 961.640625 708.386719 961.890625 708.78125 962.179688 709.132812 L 972.835938 746.40625 C 973.1875 747.636719 974.152344 748.589844 975.382812 748.941406 C 976.1875 749.160156 988.992188 752.671875 1005.925781 752.671875 C 1014.679688 752.671875 1024.542969 751.734375 1034.390625 748.925781 C 1063.324219 740.671875 1083.960938 718.527344 1084.839844 717.589844 C 1085.703125 716.640625 1086.011719 715.324219 1085.660156 714.078125 Z M 815.523438 738.242188 C 806.929688 741.535156 774.925781 752.816406 739.667969 752.816406 C 704.441406 752.816406 672.828125 741.652344 664.3125 738.386719 L 664.28125 700.789062 C 664.28125 700.21875 664.105469 699.675781 663.828125 699.195312 L 663.84375 687.195312 C 675.097656 691.378906 705.332031 701.289062 739.683594 701.289062 C 773.5625 701.289062 803.742188 691.570312 815.476562 687.253906 Z M 479.160156 57.164062 C 499.621094 57.164062 524.078125 67.144531 531.292969 70.289062 L 531.292969 130.675781 C 521.324219 126.503906 498.949219 118.207031 479.160156 118.207031 C 459.375 118.207031 436.996094 126.519531 427.03125 130.675781 L 427.03125 70.289062 C 434.246094 67.128906 458.671875 57.164062 479.160156 57.164062 Z M 649.691406 686.902344 C 643.996094 689.828125 624.957031 698.40625 597.558594 698.40625 C 570.164062 698.40625 551.109375 689.828125 545.429688 686.902344 L 545.429688 676.421875 C 554.109375 680.402344 572.417969 687.089844 597.558594 687.089844 C 622.71875 687.089844 641.011719 680.402344 649.691406 676.421875 Z M 649.691406 185.046875 C 641.027344 181.066406 622.71875 174.375 597.558594 174.375 C 572.402344 174.375 554.09375 181.066406 545.429688 185.046875 L 545.429688 174.566406 C 551.121094 171.640625 570.164062 163.0625 597.558594 163.0625 C 624.957031 163.0625 643.996094 171.640625 649.691406 174.566406 Z M 545.414062 193.226562 C 551.078125 190.300781 570.046875 181.722656 597.546875 181.722656 C 624.941406 181.722656 643.984375 190.300781 649.675781 193.226562 L 649.675781 668.226562 C 644.011719 671.152344 625.058594 679.730469 597.546875 679.730469 C 570.148438 679.730469 551.09375 671.152344 545.414062 668.226562 Z M 649.691406 126.167969 L 649.691406 166.371094 C 641.027344 162.390625 622.71875 155.703125 597.558594 155.703125 C 572.402344 155.703125 554.09375 162.390625 545.429688 166.371094 L 545.429688 126.167969 C 551.121094 123.242188 570.164062 114.664062 597.558594 114.664062 C 624.957031 114.664062 643.996094 123.242188 649.691406 126.167969 Z M 531.292969 682.453125 C 524.078125 685.613281 499.605469 695.578125 479.160156 695.578125 C 458.714844 695.578125 434.246094 685.597656 427.03125 682.453125 L 427.03125 575.382812 C 436.527344 577.386719 459.226562 581.6875 479.160156 581.6875 C 499.09375 581.6875 521.792969 577.386719 531.292969 575.382812 Z M 427.015625 138.695312 C 434.230469 135.550781 458.703125 125.566406 479.148438 125.566406 C 499.59375 125.566406 524.0625 135.550781 531.277344 138.695312 L 531.277344 245.765625 C 521.777344 243.761719 499.078125 239.460938 479.148438 239.460938 C 459.214844 239.460938 436.515625 243.761719 427.015625 245.765625 Z M 427.015625 360.84375 L 531.292969 360.84375 L 531.292969 460.304688 L 427.015625 460.304688 Z M 531.292969 353.480469 L 427.015625 353.480469 L 427.015625 253.289062 C 435.082031 251.546875 458.964844 246.804688 479.148438 246.804688 C 499.328125 246.804688 523.214844 251.546875 531.277344 253.289062 L 531.277344 353.480469 Z M 427.015625 467.664062 L 531.292969 467.664062 L 531.292969 567.859375 C 523.226562 569.601562 499.34375 574.339844 479.160156 574.339844 C 458.980469 574.339844 435.09375 569.601562 427.03125 567.859375 L 427.03125 467.664062 Z M 427.015625 733.675781 L 427.015625 690.472656 C 436.984375 694.644531 459.359375 702.941406 479.148438 702.941406 C 498.933594 702.941406 521.3125 694.628906 531.277344 690.472656 L 531.277344 733.675781 C 524.046875 736.835938 499.59375 746.804688 479.148438 746.804688 C 458.703125 746.804688 434.246094 736.835938 427.015625 733.675781 Z M 545.414062 695.097656 C 554.09375 699.078125 572.402344 705.765625 597.546875 705.765625 C 622.703125 705.765625 640.996094 699.078125 649.675781 695.097656 L 649.675781 735.300781 C 644.011719 738.226562 625.058594 746.804688 597.546875 746.804688 C 570.148438 746.804688 551.09375 738.226562 545.414062 735.300781 Z M 663.8125 234.394531 C 664.105469 233.867188 664.265625 233.269531 664.265625 232.625 L 664.3125 195.011719 C 672.8125 191.734375 704.441406 180.582031 739.667969 180.582031 C 774.925781 180.582031 806.929688 191.867188 815.523438 195.160156 L 815.464844 246.160156 C 803.726562 241.84375 773.546875 232.125 739.667969 232.125 C 705.332031 232.125 675.097656 242.035156 663.828125 246.21875 Z M 663.917969 606.496094 L 663.945312 583.957031 L 664.0625 559.675781 L 664.035156 536.859375 L 664.0625 525.59375 L 664.035156 496.144531 L 664.0625 466.683594 L 663.929688 327.136719 C 664.148438 326.671875 664.296875 326.144531 664.296875 325.585938 L 664.324219 287.988281 C 672.828125 284.710938 704.457031 273.558594 739.683594 273.558594 C 774.820312 273.558594 806.726562 284.769531 815.433594 288.09375 L 815.257812 466.699219 L 815.289062 496.144531 L 815.257812 525.59375 L 815.273438 538.121094 L 815.257812 559.675781 L 815.390625 602.574219 L 815.40625 607.386719 L 815.449219 645.367188 C 806.742188 648.703125 774.835938 659.914062 739.695312 659.914062 C 704.46875 659.914062 672.859375 648.746094 664.339844 645.484375 L 664.3125 607.886719 C 664.28125 607.402344 664.136719 606.933594 663.917969 606.496094 Z M 815.433594 280.234375 C 803.667969 275.914062 773.519531 266.210938 739.667969 266.210938 C 705.789062 266.210938 675.886719 275.855469 664.296875 280.128906 L 664.324219 253.917969 C 672.828125 250.640625 704.457031 239.472656 739.683594 239.472656 C 774.867188 239.472656 806.8125 250.714844 815.476562 254.035156 Z M 739.667969 667.289062 C 773.519531 667.289062 803.667969 657.585938 815.433594 653.253906 L 815.464844 679.347656 C 806.8125 682.671875 774.867188 693.910156 739.667969 693.910156 C 704.441406 693.910156 672.828125 682.746094 664.3125 679.480469 L 664.28125 653.371094 C 675.886719 657.644531 705.773438 667.289062 739.667969 667.289062 Z M 387.148438 70.027344 C 396.765625 70.027344 408.179688 74.050781 412.894531 75.894531 L 412.894531 100.042969 C 406.9375 98.332031 396.5 95.769531 387.148438 95.769531 C 377.785156 95.769531 367.363281 98.316406 361.40625 100.042969 L 361.40625 75.894531 C 366.121094 74.066406 377.535156 70.027344 387.148438 70.027344 Z M 412.894531 107.726562 L 412.894531 702.0625 C 408.226562 703.980469 396.765625 708.238281 387.148438 708.238281 C 377.519531 708.238281 366.074219 703.980469 361.40625 702.0625 L 361.40625 107.726562 C 366.308594 106.234375 377.59375 103.132812 387.148438 103.132812 C 396.707031 103.132812 408.003906 106.234375 412.894531 107.726562 Z M 361.40625 739.339844 L 361.40625 709.980469 C 367.464844 712.277344 377.828125 715.601562 387.148438 715.601562 C 396.488281 715.601562 406.835938 712.292969 412.894531 709.980469 L 412.894531 739.339844 C 408.414062 741.5625 396.851562 746.804688 387.148438 746.804688 C 377.476562 746.804688 365.886719 741.5625 361.40625 739.339844 Z M 1032.386719 741.839844 C 1009.613281 748.339844 986.140625 743.890625 979.332031 742.339844 L 968.898438 705.839844 C 968.765625 705.371094 968.53125 704.960938 968.226562 704.609375 L 965.109375 693.648438 C 970.566406 694.714844 979.390625 696.035156 989.769531 696.035156 C 998.519531 696.035156 1008.386719 695.097656 1018.25 692.285156 C 1039.585938 686.199219 1056.402344 672.574219 1064.117188 665.445312 L 1078.019531 714.050781 C 1073 718.996094 1055.230469 735.3125 1032.386719 741.839844 Z M 928.84375 191.089844 L 942.671875 239.722656 C 932.355469 237.746094 910.871094 235.023438 889.5625 241.113281 C 868.003906 247.257812 851.203125 261.003906 843.679688 267.996094 L 840.578125 257.136719 C 840.652344 256.640625 840.621094 256.128906 840.476562 255.632812 L 830.097656 219.117188 C 835.058594 214.199219 852.652344 198.042969 875.425781 191.542969 C 898.195312 185.058594 921.949219 189.539062 928.84375 191.089844 Z M 952.726562 649.199219 C 952.609375 648.777344 952.390625 648.394531 952.128906 648.058594 L 904.519531 480.765625 L 856.734375 313.660156 C 856.777344 313.207031 856.765625 312.738281 856.617188 312.269531 L 846.242188 275.769531 C 851.203125 270.851562 868.792969 254.695312 891.566406 248.195312 C 914.296875 241.714844 938.003906 246.164062 944.941406 247.726562 L 1003.234375 452.621094 L 1011.664062 482.097656 L 1019.390625 509.257812 L 1040.625 583.355469 L 1061.816406 657.441406 C 1056.753906 662.429688 1038.972656 678.71875 1016.230469 685.203125 C 993.457031 691.703125 969.996094 687.265625 963.175781 685.699219 Z M 952.726562 649.199219 " fill-opacity="1" fill-rule="nonzero"/></g></svg>