<svg xmlns="http://www.w3.org/2000/svg" xmlns:xlink="http://www.w3.org/1999/xlink" width="1920" zoomAndPan="magnify" viewBox="0 0 1440 809.999993" height="1080" preserveAspectRatio="xMidYMid meet" version="1.0"><path fill="#3a6351" d="M 572.050781 346.589844 C 572.175781 346.917969 572.355469 347.222656 572.558594 347.5 C 601.65625 398.394531 656.476562 432.761719 719.171875 432.761719 C 781.839844 432.761719 836.648438 398.421875 865.746094 347.566406 C 866 347.25 866.203125 346.894531 866.34375 346.5 C 880.082031 322.085938 887.933594 293.949219 887.933594 264 C 887.933594 263.746094 887.921875 263.507812 887.921875 263.253906 C 887.921875 263.214844 887.933594 263.191406 887.933594 263.164062 C 887.933594 263.125 887.921875 263.089844 887.921875 263.039062 C 887.402344 170.433594 811.917969 95.25 719.183594 95.25 C 657.71875 95.25 603.824219 128.289062 574.316406 177.535156 C 572.847656 178.066406 571.785156 179.460938 571.785156 181.121094 C 571.785156 181.347656 571.808594 181.5625 571.847656 181.777344 C 558.210938 206.128906 550.410156 234.164062 550.410156 264 C 550.421875 293.988281 558.285156 322.164062 572.050781 346.589844 Z M 578.851562 184.945312 L 627.707031 184.945312 C 620.410156 207.257812 616.105469 232.519531 615.648438 259.339844 L 558.144531 259.339844 C 558.917969 232.378906 566.351562 207.054688 578.851562 184.945312 Z M 859.378906 184.730469 C 871.953125 206.875 879.4375 232.277344 880.210938 259.339844 L 822.691406 259.339844 C 822.25 232.519531 817.933594 207.257812 810.636719 184.945312 L 858.148438 184.945312 C 858.59375 184.945312 859 184.867188 859.378906 184.730469 Z M 860.453125 341.386719 L 811.195312 341.386719 C 818.300781 319.023438 822.425781 293.757812 822.71875 267 L 880.246094 267 C 879.753906 293.910156 872.636719 319.222656 860.453125 341.386719 Z M 558.121094 267 L 615.648438 267 C 615.941406 293.757812 620.054688 319.035156 627.171875 341.386719 L 577.914062 341.386719 C 565.730469 319.222656 558.601562 293.910156 558.121094 267 Z M 623.296875 267 L 715.347656 267 L 715.347656 341.386719 L 635.085938 341.386719 C 627.832031 319.222656 623.601562 293.910156 623.296875 267 Z M 715.359375 349.046875 L 715.359375 424.976562 C 682.636719 422.808594 654.082031 392.976562 637.773438 349.046875 Z M 723.007812 349.046875 L 800.597656 349.046875 C 784.273438 392.976562 755.730469 422.808594 723.007812 424.976562 Z M 723.007812 341.386719 L 723.007812 267 L 815.058594 267 C 814.765625 293.910156 810.523438 319.222656 803.269531 341.386719 Z M 815.03125 259.339844 L 723.007812 259.339844 L 723.007812 184.945312 L 802.710938 184.945312 C 810.15625 207.054688 814.574219 232.378906 815.03125 259.339844 Z M 723.007812 177.296875 L 723.007812 103.050781 C 755.3125 105.191406 783.550781 134.292969 799.976562 177.296875 Z M 715.359375 177.296875 L 638.394531 177.296875 C 654.804688 134.277344 683.054688 105.191406 715.359375 103.050781 Z M 715.359375 184.945312 L 715.359375 259.339844 L 623.324219 259.339844 C 623.78125 232.367188 628.210938 207.054688 635.644531 184.945312 Z M 629.757812 349.046875 C 641.230469 380.96875 658.945312 406.222656 680.167969 420.339844 C 639.101562 410.082031 604.238281 384.046875 582.410156 349.046875 Z M 808.597656 349.046875 L 855.960938 349.046875 C 834.128906 384.035156 799.253906 410.082031 758.1875 420.339844 C 779.398438 406.222656 797.125 380.957031 808.597656 349.046875 Z M 807.992188 177.296875 C 796.503906 146.167969 779.03125 121.550781 758.199219 107.699219 C 798.609375 117.777344 833.027344 143.15625 854.921875 177.296875 Z M 630.378906 177.296875 L 583.460938 177.296875 C 605.355469 143.15625 639.773438 117.777344 680.167969 107.699219 C 659.324219 121.550781 641.863281 146.167969 630.378906 177.296875 Z M 630.378906 177.296875 " fill-opacity="1" fill-rule="nonzero"/><path fill="#3a6351" d="M 541.074219 375.992188 C 535.046875 377.4375 521.613281 384.71875 526.867188 421.050781 C 528.222656 430.421875 530.3125 446.832031 533.058594 469.839844 L 533.757812 475.804688 C 535.972656 495.332031 538.480469 517.46875 552.523438 532.410156 C 576.800781 558.230469 579.242188 563.445312 579.472656 564.207031 C 582.800781 577.097656 582.394531 590.875 582.015625 604.183594 C 580.597656 653.117188 577.253906 723.6875 577.21875 724.398438 C 577.167969 725.449219 577.546875 726.460938 578.269531 727.21875 C 578.988281 727.980469 579.988281 728.410156 581.042969 728.410156 L 718.511719 728.410156 C 719.042969 728.410156 719.550781 728.296875 720.007812 728.105469 C 720.464844 728.296875 720.96875 728.410156 721.5 728.410156 L 858.972656 728.410156 C 860.023438 728.410156 861.023438 727.980469 861.746094 727.21875 C 862.46875 726.460938 862.847656 725.433594 862.796875 724.398438 C 862.757812 723.6875 859.417969 653.117188 858.011719 604.183594 C 857.617188 590.875 857.226562 577.109375 860.542969 564.230469 C 860.785156 563.445312 863.226562 558.242188 887.503906 532.421875 C 901.558594 517.480469 904.066406 495.34375 906.28125 475.804688 L 906.964844 469.851562 C 909.726562 446.84375 911.804688 430.433594 913.160156 421.0625 C 918.414062 384.730469 904.980469 377.449219 898.964844 376.007812 C 889.0625 373.636719 877.132812 380.957031 873.472656 391.695312 C 869.484375 403.433594 862.683594 422.265625 857.679688 435.992188 L 856.277344 439.867188 C 851.804688 452.289062 851.804688 452.289062 840.585938 461.21875 L 838.710938 462.710938 C 835.851562 464.992188 829.101562 470.371094 824.023438 473.878906 C 825.582031 471.121094 828.035156 467.132812 831.898438 461.367188 C 835.773438 455.605469 837.484375 450.351562 837.140625 445.324219 C 836.457031 435.054688 826.367188 428.46875 817.414062 428.242188 C 809.902344 428.140625 801.773438 431.496094 794.214844 438.183594 C 793.542969 438.777344 736.242188 491.925781 719.996094 540.058594 C 703.761719 491.925781 646.460938 438.777344 645.777344 438.183594 C 638.214844 431.496094 630.25 428.039062 622.578125 428.242188 C 613.625 428.457031 603.53125 435.054688 602.847656 445.324219 C 602.503906 450.363281 604.226562 455.605469 608.089844 461.367188 C 611.953125 467.117188 614.410156 471.105469 615.964844 473.878906 C 610.886719 470.371094 604.140625 464.992188 601.277344 462.710938 L 599.402344 461.21875 C 588.183594 452.289062 588.183594 452.289062 583.714844 439.867188 L 582.308594 435.992188 C 577.304688 422.253906 570.503906 403.421875 566.515625 391.695312 C 562.90625 380.945312 551.03125 373.636719 541.074219 375.992188 Z M 576.546875 442.449219 C 581.597656 456.507812 582.117188 457.203125 594.667969 467.195312 L 596.539062 468.675781 C 616.28125 484.417969 621.042969 486.910156 624.792969 483.453125 C 628.007812 480.492188 627.289062 476.171875 614.484375 457.078125 C 611.597656 452.785156 610.304688 449.097656 610.519531 445.804688 C 610.902344 440.121094 617.296875 436.015625 622.792969 435.878906 C 629.882812 435.675781 636.492188 440.144531 640.734375 443.894531 C 655.046875 456.558594 710.660156 514.199219 716.171875 556.683594 C 715.917969 558.902344 715.777344 561.078125 715.777344 563.230469 C 715.777344 581.164062 715.953125 603.019531 716.195312 624.800781 C 715.726562 666.703125 714.992188 708.265625 714.777344 720.738281 L 585.066406 720.738281 C 585.800781 705.046875 588.460938 646.65625 589.691406 604.386719 C 590.082031 590.546875 590.5 576.222656 586.902344 562.28125 C 586.421875 560.421875 585.296875 556.066406 558.121094 527.15625 C 545.8125 514.0625 543.558594 494.167969 541.378906 474.929688 L 540.683594 468.902344 C 537.910156 445.855469 535.808594 429.382812 534.441406 419.949219 C 531.425781 399.078125 534.566406 385.429688 542.863281 383.441406 C 548.914062 381.984375 556.941406 387.175781 559.3125 394.140625 C 563.324219 405.941406 570.136719 424.824219 575.152344 438.589844 Z M 723.425781 563.257812 C 723.425781 520.390625 784.246094 457.253906 799.304688 443.917969 C 803.546875 440.15625 809.878906 435.664062 817.246094 435.902344 C 822.757812 436.042969 829.140625 440.144531 829.519531 445.832031 C 829.746094 449.109375 828.441406 452.796875 825.554688 457.089844 C 812.738281 476.171875 812.019531 480.492188 815.246094 483.464844 C 818.984375 486.910156 823.757812 484.429688 843.5 468.6875 L 845.371094 467.207031 C 857.933594 457.214844 858.441406 456.519531 863.492188 442.460938 L 864.886719 438.601562 C 869.902344 424.835938 876.726562 405.953125 880.730469 394.152344 C 883.097656 387.1875 891.0625 381.984375 897.179688 383.453125 C 905.460938 385.441406 908.613281 399.089844 905.597656 419.960938 C 904.230469 429.394531 902.140625 445.871094 899.367188 468.941406 L 898.671875 474.945312 C 896.496094 494.191406 894.242188 514.097656 881.929688 527.191406 C 854.742188 556.101562 853.628906 560.457031 853.148438 562.320312 C 849.550781 576.289062 849.96875 590.597656 850.363281 604.4375 C 851.578125 646.707031 854.25 705.085938 854.972656 720.773438 L 725.273438 720.773438 C 724.933594 701.792969 723.425781 615.644531 723.425781 563.257812 Z M 723.425781 563.257812 " fill-opacity="1" fill-rule="nonzero"/></svg>