<svg xmlns="http://www.w3.org/2000/svg" xmlns:xlink="http://www.w3.org/1999/xlink" width="1920" zoomAndPan="magnify" viewBox="0 0 1440 809.999993" height="1080" preserveAspectRatio="xMidYMid meet" version="1.0"><path fill="#e4cab8" d="M 227.820312 720.109375 C 152.875 720.109375 88.089844 657.675781 86.003906 582.933594 C 84.929688 543.917969 99.460938 506.847656 126.90625 478.523438 C 154.222656 450.40625 190.550781 434.863281 229.230469 434.796875 C 229.300781 434.796875 229.367188 434.796875 229.433594 434.796875 C 267.242188 434.796875 303.167969 450.066406 330.613281 477.785156 C 358.332031 505.769531 374.007812 544.050781 373.535156 582.800781 C 372.660156 656.195312 306.800781 719.097656 229.570312 720.109375 C 228.964844 720.109375 228.425781 720.109375 227.820312 720.109375 Z M 229.433594 448.25 C 229.367188 448.25 229.300781 448.25 229.230469 448.25 C 194.25 448.320312 161.285156 462.445312 136.527344 487.945312 C 111.636719 513.640625 98.449219 547.210938 99.390625 582.597656 C 101.34375 650.210938 159.941406 706.652344 227.753906 706.652344 C 228.289062 706.652344 228.828125 706.652344 229.367188 706.652344 C 299.46875 705.710938 359.273438 648.929688 360.015625 582.667969 C 360.417969 547.480469 346.15625 512.769531 320.996094 487.269531 C 296.171875 462.109375 263.609375 448.25 229.433594 448.25 Z M 229.433594 448.25 " fill-opacity="1" fill-rule="nonzero"/><path fill="#e4cab8" d="M 877.421875 720.109375 C 802.480469 720.109375 737.691406 657.675781 735.609375 582.933594 C 734.53125 543.917969 749.0625 506.847656 776.511719 478.523438 C 803.824219 450.40625 840.152344 434.863281 878.835938 434.796875 C 878.902344 434.796875 878.96875 434.796875 879.105469 434.796875 C 916.914062 434.796875 952.835938 450.066406 980.285156 477.785156 C 1008.003906 505.769531 1023.609375 544.050781 1023.207031 582.800781 C 1022.398438 656.195312 956.46875 719.097656 879.304688 720.109375 C 878.632812 720.109375 878.027344 720.109375 877.421875 720.109375 Z M 879.105469 448.25 C 879.035156 448.25 878.96875 448.25 878.902344 448.25 C 843.917969 448.320312 810.957031 462.378906 786.199219 487.875 C 761.304688 513.574219 748.121094 547.144531 749.0625 582.53125 C 750.945312 650.140625 809.542969 706.585938 877.421875 706.585938 C 877.960938 706.585938 878.5 706.585938 879.035156 706.585938 C 949.136719 705.644531 1008.945312 648.863281 1009.683594 582.597656 C 1010.085938 547.414062 995.894531 512.699219 970.664062 487.203125 C 945.773438 462.109375 913.28125 448.25 879.105469 448.25 Z M 879.105469 448.25 " fill-opacity="1" fill-rule="nonzero"/><path fill="#e4cab8" d="M 560.222656 385.820312 C 485.277344 385.820312 420.492188 323.390625 418.410156 248.648438 C 417.332031 209.628906 431.863281 172.5625 459.3125 144.238281 C 486.625 116.117188 522.953125 100.578125 561.636719 100.507812 C 561.703125 100.507812 561.769531 100.507812 561.90625 100.507812 C 599.714844 100.507812 635.636719 115.78125 663.085938 143.496094 C 690.804688 171.484375 706.476562 209.761719 706.007812 248.511719 C 705.199219 321.910156 639.269531 384.8125 562.105469 385.820312 C 561.433594 385.820312 560.828125 385.820312 560.222656 385.820312 Z M 561.835938 114.03125 C 561.769531 114.03125 561.703125 114.03125 561.636719 114.03125 C 526.652344 114.097656 493.6875 128.160156 468.929688 153.65625 C 444.039062 179.355469 430.855469 212.925781 431.796875 248.3125 C 433.679688 315.921875 492.277344 372.367188 560.15625 372.367188 C 560.695312 372.367188 561.230469 372.367188 561.769531 372.367188 C 631.871094 371.425781 691.675781 314.644531 692.417969 248.378906 C 692.820312 213.195312 678.558594 178.480469 653.398438 152.984375 C 628.574219 127.824219 596.011719 114.03125 561.835938 114.03125 Z M 561.835938 114.03125 " fill-opacity="1" fill-rule="nonzero"/><path fill="#e4cab8" d="M 1194.621094 385.820312 C 1119.679688 385.820312 1054.894531 323.390625 1052.808594 248.648438 C 1051.730469 209.628906 1066.261719 172.5625 1093.710938 144.238281 C 1121.023438 116.117188 1157.351562 100.578125 1196.035156 100.507812 C 1196.101562 100.507812 1196.167969 100.507812 1196.304688 100.507812 C 1234.113281 100.507812 1270.035156 115.78125 1297.484375 143.496094 C 1325.203125 171.484375 1340.875 209.761719 1340.40625 248.511719 C 1339.597656 321.910156 1273.667969 384.8125 1196.503906 385.820312 C 1195.832031 385.820312 1195.226562 385.820312 1194.621094 385.820312 Z M 1196.304688 114.03125 C 1196.238281 114.03125 1196.167969 114.03125 1196.101562 114.03125 C 1161.117188 114.097656 1128.15625 128.160156 1103.398438 153.65625 C 1078.4375 179.355469 1065.320312 212.925781 1066.261719 248.3125 C 1068.144531 315.921875 1126.742188 372.367188 1194.621094 372.367188 C 1195.160156 372.367188 1195.699219 372.367188 1196.238281 372.367188 C 1266.335938 371.425781 1326.144531 314.644531 1326.882812 248.378906 C 1327.289062 213.195312 1313.09375 178.480469 1287.863281 152.984375 C 1262.972656 127.824219 1230.480469 114.03125 1196.304688 114.03125 Z M 1196.304688 114.03125 " fill-opacity="1" fill-rule="nonzero"/><path fill="#e4cab8" d="M 555.648438 735.984375 C 547.644531 735.984375 539.570312 735.378906 531.496094 734.234375 C 476.871094 726.09375 434.6875 692.257812 418.609375 643.617188 C 412.085938 623.972656 408.921875 603.453125 406.90625 587.847656 C 389.882812 457.066406 352.074219 418.515625 223.042969 400.351562 C 141.035156 388.714844 87.550781 329.378906 86.878906 249.117188 C 86.273438 172.695312 141.238281 106.027344 214.632812 94.050781 C 295.566406 80.796875 368.222656 126.476562 391.296875 205.054688 C 397.148438 224.96875 400.984375 244.207031 402.734375 262.238281 C 410.539062 343.707031 469.671875 400.753906 549.796875 404.253906 C 640.480469 408.15625 702.441406 358.84375 715.222656 272.261719 C 723.96875 213.261719 733.792969 146.390625 804.902344 110.398438 C 853 86.046875 906.417969 85.777344 951.558594 109.726562 C 996.699219 133.675781 1026.433594 178.078125 1033.296875 231.492188 C 1034.039062 237.347656 1034.710938 243.265625 1035.382812 249.1875 C 1038.277344 274.953125 1041.234375 301.660156 1051.933594 325.140625 C 1060.945312 344.917969 1074.066406 362.746094 1090.816406 378.21875 C 1109.183594 395.105469 1121.292969 399.207031 1145.445312 407.417969 C 1161.457031 412.867188 1177.535156 414.480469 1194.488281 416.230469 C 1209.960938 417.777344 1225.90625 419.390625 1241.378906 424.03125 C 1289.882812 438.496094 1327.019531 478.523438 1340.539062 531.066406 C 1354.398438 584.820312 1341.078125 638.90625 1304.953125 675.773438 C 1282.011719 699.117188 1250.324219 714.324219 1215.613281 718.5625 C 1126.339844 729.460938 1051.257812 668.507812 1036.996094 573.585938 C 1035.855469 566.117188 1035.046875 558.449219 1034.238281 550.980469 C 1032.222656 532.210938 1030.335938 514.515625 1023.945312 498.707031 C 999.792969 439.101562 929.425781 396.988281 867.128906 404.589844 C 793.464844 413.671875 742.46875 459.082031 723.566406 532.34375 C 720.335938 544.925781 717.578125 558.378906 714.953125 571.363281 C 707.554688 607.828125 699.953125 645.566406 678.960938 675.304688 C 651.917969 713.449219 605.230469 735.984375 555.648438 735.984375 Z M 242.082031 105.21875 C 233.808594 105.21875 225.398438 105.890625 216.855469 107.304688 C 150.925781 118.066406 99.796875 180.296875 100.335938 248.984375 C 100.941406 322.246094 149.847656 376.402344 224.925781 386.964844 C 360.417969 406.070312 402.398438 448.855469 420.292969 586.03125 C 422.242188 601.097656 425.269531 620.742188 431.460938 639.3125 C 445.921875 683.039062 484.066406 713.449219 533.515625 720.847656 C 586.730469 728.71875 639.472656 707.730469 667.929688 667.363281 C 687.238281 639.917969 694.636719 603.65625 701.703125 568.539062 C 704.390625 555.421875 707.082031 541.832031 710.445312 528.847656 C 730.5625 450.941406 787.074219 400.753906 865.378906 391.066406 C 933.394531 382.726562 1010.085938 428.609375 1036.324219 493.460938 C 1043.457031 511.085938 1045.542969 530.527344 1047.558594 549.367188 C 1048.367188 556.632812 1049.105469 564.164062 1050.25 571.363281 C 1063.4375 658.820312 1132.257812 714.929688 1213.929688 704.972656 C 1245.617188 701.070312 1274.542969 687.277344 1295.332031 666.152344 C 1328.160156 632.71875 1340.203125 583.40625 1327.488281 534.230469 C 1315.109375 486.261719 1281.472656 449.800781 1237.476562 436.679688 C 1223.214844 432.441406 1208.546875 430.960938 1193.074219 429.347656 C 1176.054688 427.597656 1158.496094 425.847656 1141.609375 420.0625 C 1115.910156 411.316406 1102.121094 406.609375 1081.667969 387.839844 C 1063.570312 371.222656 1049.441406 351.914062 1039.6875 330.453125 C 1028.117188 305.023438 1025.023438 277.308594 1021.996094 250.464844 C 1021.324219 244.613281 1020.71875 238.757812 1019.976562 232.972656 C 1013.71875 183.929688 986.542969 143.230469 945.300781 121.363281 C 904.128906 99.5 855.222656 99.835938 811.023438 122.171875 C 750.8125 152.648438 738.902344 204.382812 728.609375 274.011719 C 714.617188 368.261719 647.746094 421.949219 549.191406 417.640625 C 462.070312 413.875 397.824219 351.914062 389.277344 263.449219 C 387.664062 246.292969 383.964844 227.859375 378.3125 208.753906 C 359.746094 145.246094 305.589844 105.21875 242.082031 105.21875 Z M 242.082031 105.21875 " fill-opacity="1" fill-rule="nonzero"/></svg>