<?xml version="1.0" encoding="UTF-8"?>
<svg id="Layer_2" data-name="Layer 2" xmlns="http://www.w3.org/2000/svg" viewBox="0 0 847.69 850.94">
  <defs>
    <style>
      .cls-1 {
      fill: #ffffff;
      stroke-width: 0px;
      }
    </style>
  </defs>
  <g id="Capa_1" data-name="Capa 1">
    <g>
      <path class="cls-1"
        d="M451.71,0H0v405.98h.52c-.34,6.99-.52,14.03-.52,21.11,0,234.08,189.76,423.85,423.85,423.85s423.85-189.76,423.85-423.85V0h-395.98ZM423.85,728.65c-177.21,0-320.87-135.74-320.87-303.18,0-108.71,60.57-204.04,151.55-257.55,35.82-17.26,75.96-26.97,118.39-26.97,146.14,0,265.46,114.81,272.68,259.15h97.99c.73,8.37,1.14,16.83,1.14,25.37,0,167.44-143.66,303.18-320.87,303.18Z" />
      <path class="cls-1"
        d="M530.11,422.49c0,59.09-50.68,106.14-113.19,106.14s-113.19-51.23-113.19-110.33c0-36.17,31.02-65.49,69.28-65.49s67.82,32.51,69.21,67.73l110,1.78c-.25-93.36-80.39-168.97-179.21-168.97s-178.96,75.61-179.21,168.97h0c0,.07,0,.15,0,.22s0,.15,0,.22c0,1.53.02,3.06.07,4.59,2.82,110.94,98.85,200.06,216.89,200.06s216.96-91.82,216.96-205.09h-75.49l-22.11.17Z" />
    </g>
  </g>
</svg>